<svg xmlns="http://www.w3.org/2000/svg" viewBox="0 0 1200 750" role="img" aria-label="Dolphin Hotels — Exterior placeholder photograph">
  <defs>
    <linearGradient id="g-building-0E4C4A" x1="0" y1="0" x2="1" y2="1">
      <stop offset="0" stop-color="#0E4C4A"/>
      <stop offset="1" stop-color="#123F3E"/>
    </linearGradient>
    <pattern id="grain-g-building-0E4C4A" width="180" height="180" patternUnits="userSpaceOnUse">
      <circle cx="20" cy="20" r="1" fill="#ffffff" opacity="0.05"/>
      <circle cx="90" cy="70" r="1" fill="#ffffff" opacity="0.04"/>
      <circle cx="150" cy="130" r="1" fill="#ffffff" opacity="0.05"/>
      <circle cx="60" cy="150" r="1" fill="#ffffff" opacity="0.04"/>
    </pattern>
  </defs>
  <rect width="1200" height="750" fill="url(#g-building-0E4C4A)"/>
  <rect width="1200" height="750" fill="url(#grain-g-building-0E4C4A)"/>
  <rect width="1200" height="750" fill="none" stroke="#ffffff" stroke-opacity="0.08" stroke-width="18"/>
  <g transform="translate(600.0,355.0)" fill="none" stroke="#ffffff" stroke-opacity="0.55" stroke-width="3.5" stroke-linecap="round" stroke-linejoin="round">
    <path d="M-60,90 L-60,-70 L-20,-95 L20,-70 L20,90 M-60,-10 L20,-10 M-60,30 L20,30 M-35,90 L-35,55 L-5,55 L-5,90 M-40,-40 h14 M6,-40 h14 M-40,-2 h14 M6,-2 h14 M-40,38 h14 M6,38 h14"/>
  </g>
  <text x="40" y="714" font-family="Inter, Arial, sans-serif" font-size="15" letter-spacing="2.5" fill="#ffffff" fill-opacity="0.55">DOLPHIN HOTELS — EXTERIOR</text>
  <text x="40" y="736" font-family="Inter, Arial, sans-serif" font-size="11" letter-spacing="1.5" fill="#ffffff" fill-opacity="0.35">PHOTOGRAPHY PLACEHOLDER — REPLACE WITH ACTUAL PROPERTY IMAGE</text>
</svg>